# xmcd
#
# Track frame offsets:
#	150
#	12923
#	29816
#	42195
#	56500
#	72386
#	88628
#	101765
#	118134
#	130004
#	144513
#	159518
#	176883
#
# Disc length: 2601 seconds
#
# Revision: 0
# Processed by: cddbd v1.5.2PL0 Copyright (c) Steve Scherf et al.
# Submitted via: audiograbber 1.83.01
#
DISCID=b80a270d
DTITLE=Stephen Cochran - Stephen Cochran
DYEAR=2007
DGENRE=Country
TTITLE0=Friday Night Fireside
TTITLE1=Four Chords and Seven Beers Ago
TTITLE2=We're Allright (Just The Way We Are)
TTITLE3=One Good Country Song
TTITLE4=Let It Rain
TTITLE5=Two Shades Of Lipstick
TTITLE6=Leave My Country Alone
TTITLE7=Everything We Knew
TTITLE8=Thinkin' I'm Drinkin'
TTITLE9=Love Her Like A River
TTITLE10=Old School
TTITLE11=Angel Choir
TTITLE12=When A Hero Falls
EXTD=
EXTT0=
EXTT1=
EXTT2=
EXTT3=
EXTT4=
EXTT5=
EXTT6=
EXTT7=
EXTT8=
EXTT9=
EXTT10=
EXTT11=
EXTT12=
PLAYORDER=
